# xmcd
# 
# Track frame offsets:
#     150
#     23162
#     39466
#     55944
#     68818
#     81689
#     95566
#     110445
#     131170
#     147425
#     165340
#     186116
#     200003
#     213016
#     229719
#     240102
#     256799
#     278018
# 
# Disc length: 3948
# 
# Revision: 2
# Processed by: cddbd v1.5.2PL0 Copyright (c) Steve Scherf et al.
# Submitted via: BonkEnc v1.0.8
# 
DISCID=f80f6a12
DTITLE=Various Artist - Very Best of Fiesta, Salsa, Latino
DYEAR=0
DGENRE=Latin
TTITLE0=Los Del Mar - Macarena
TTITLE1=Arrow - Hot Hot Hot
TTITLE2=Mambo Kings - Mambo Nr. 5
TTITLE3=Rumba Tres - Bamboleo
TTITLE4=Latin All Stars - Lambada
TTITLE5=Gitanosoy - La Bamba
TTITLE6=Dixie's Gang - El Ritmo Tropical
TTITLE7=The Rhythm Makers - La Copa De La Vida
TTITLE8=The Latino Band - No Tengo Dinero
TTITLE9=Los Paraguayos - Guantanamera
TTITLE10=Byron Lee and The Dragonaires - Dance Hall Soca
TTITLE11=Zita - La Soca De Cuba
TTITLE12=Los Garcia - La Colegiala
TTITLE13=San Diego - La Cucaracha
TTITLE14=Latin All Stars - Brazil
TTITLE15=Banda Blanca - Fiesta
TTITLE16=Byron Lee and The Dragonaires - Girlie Girlie
TTITLE17=Los Paraguayos - La Paloma
EXTD=
EXTT0=
EXTT1=
EXTT2=
EXTT3=
EXTT4=
EXTT5=
EXTT6=
EXTT7=
EXTT8=
EXTT9=
EXTT10=
EXTT11=
EXTT12=
EXTT13=
EXTT14=
EXTT15=
EXTT16=
EXTT17=
PLAYORDER=
